<!-- Generated by IcoMoon.io -->
<svg version="1.1" xmlns="http://www.w3.org/2000/svg" width="32" height="32" viewBox="0 0 32 32">
<title>baby</title>
<path d="M32 15.333c-0.002-1.926-1.169-3.578-2.835-4.29l-0.030-0.012c-1.135-6.308-6.583-11.033-13.133-11.033s-11.998 4.724-13.121 10.951l-0.012 0.081c-1.693 0.726-2.857 2.378-2.857 4.302 0 2.466 1.912 4.485 4.334 4.655l0.015 0.001c0.726 1.521 1.652 2.823 2.762 3.941l-0.001-0.001c-1.613 1.756-2.706 4.013-3.023 6.512l-0.006 0.059c-0.007 0.050-0.010 0.108-0.010 0.167 0 0.736 0.596 1.332 1.332 1.333h21.145c0.736-0 1.333-0.597 1.333-1.333 0-0.058-0.004-0.116-0.011-0.172l0.001 0.007c-0.321-2.551-1.409-4.803-3.023-6.566l0.008 0.009c1.116-1.12 2.046-2.427 2.739-3.87l0.037-0.085c2.441-0.167 4.357-2.188 4.357-4.656v-0zM26.997 17.297c-0.072-0.014-0.154-0.022-0.239-0.022-0.576 0-1.065 0.367-1.248 0.88l-0.003 0.009c-1.221 3.464-5.335 7.168-9.508 7.168s-8.287-3.707-9.508-7.171c-0.186-0.522-0.676-0.89-1.252-0.89-0.084 0-0.166 0.008-0.246 0.023l0.008-0.001c-0.099 0.020-0.214 0.034-0.332 0.039l-0.004 0c-1.094-0.014-1.976-0.904-1.976-2 0-0.969 0.689-1.777 1.603-1.961l0.013-0.002c0.58-0.108 1.023-0.579 1.087-1.165l0.001-0.006c0.414-3.841 2.821-7.037 6.154-8.559l0.066-0.027c-0.207 0.511-0.327 1.103-0.327 1.724 0 2.602 2.11 4.712 4.712 4.712s4.712-2.11 4.712-4.712c0-0.621-0.12-1.213-0.338-1.756l0.011 0.032c3.399 1.55 5.806 4.745 6.216 8.54l0.004 0.047c0.065 0.591 0.508 1.063 1.080 1.169l0.008 0.001c0.927 0.186 1.616 0.994 1.616 1.963 0 1.096-0.882 1.986-1.975 2h-0.001c-0.121-0.003-0.237-0.016-0.349-0.038l0.013 0.002z"></path>
<path d="M14.667 15.333c0 1.105-0.895 2-2 2s-2-0.895-2-2c0-1.105 0.895-2 2-2s2 0.895 2 2z"></path>
<path d="M21.333 15.333c0 1.105-0.895 2-2 2s-2-0.895-2-2c0-1.105 0.895-2 2-2s2 0.895 2 2z"></path>
</svg>
