<!-- Generated by IcoMoon.io -->
<svg version="1.1" xmlns="http://www.w3.org/2000/svg" width="32" height="32" viewBox="0 0 32 32">
<title>child</title>
<path d="M32 15.333c-0 2.468-1.917 4.489-4.343 4.655l-0.014 0.001c-1.379 2.841-3.553 5.114-6.232 6.578l-0.077 0.038v4.061c0 0.736-0.597 1.333-1.333 1.333v0h-8c-0.736 0-1.333-0.597-1.333-1.333v0-4.063c-2.581-1.424-4.648-3.503-6.017-6.017l-0.039-0.079c-0.094-0.178-0.149-0.389-0.149-0.613 0-0.736 0.597-1.333 1.333-1.333 0.512 0 0.957 0.289 1.181 0.713l0.003 0.007c1.555 3.008 5.155 6.052 9.021 6.052v0c4.172 0 8.283-3.705 9.504-7.168 0.186-0.522 0.676-0.89 1.252-0.89 0.084 0 0.166 0.008 0.246 0.023l-0.008-0.001c0.1 0.020 0.218 0.033 0.337 0.036l0.003 0c1.094-0.014 1.976-0.904 1.976-2 0-0.969-0.689-1.777-1.603-1.961l-0.013-0.002c-0.58-0.108-1.023-0.579-1.087-1.165l-0.001-0.006c-0.377-3.508-2.414-6.471-5.299-8.119l-0.052-0.027c-0.419 1.298-0.929 2.419-1.547 3.468l0.043-0.080c-1.742 2.449-3.95 4.449-6.509 5.904l-0.099 0.052c0.882 0.221 1.524 1.007 1.524 1.943 0 1.105-0.895 2-2 2s-2-0.895-2-2c0-0.298 0.065-0.581 0.182-0.835l-0.005 0.012c-2.34 0.975-5.059 1.541-7.91 1.541-0.622 0-1.237-0.027-1.845-0.080l0.079 0.006c-0.656-0.090-1.156-0.648-1.156-1.322 0-0.486 0.26-0.911 0.649-1.144l0.006-0.003c0.779-0.88 1.382-1.936 1.743-3.098l0.016-0.060c1.74-4.124 4.375-10.356 13.575-10.356 0.009-0 0.019-0 0.029-0 6.544 0 11.984 4.726 13.093 10.952l0.012 0.080c1.696 0.723 2.864 2.376 2.865 4.301v0zM21.333 15.333c0-1.105-0.895-2-2-2s-2 0.895-2 2c0 1.105 0.895 2 2 2v0c1.105 0 2-0.895 2-2v0z"></path>
</svg>
