<!-- Generated by IcoMoon.io -->
<svg version="1.1" xmlns="http://www.w3.org/2000/svg" width="32" height="32" viewBox="0 0 32 32">
<title>hourglass</title>
<path d="M22.068 16c2.998-2.462 5.114-5.902 5.858-9.828l0.016-0.104c0.035-0.229 0.056-0.494 0.056-0.764 0-1.317-0.485-2.522-1.285-3.444l0.006 0.006c-0.986-1.143-2.434-1.863-4.051-1.867h-13.327c-1.62 0.001-3.072 0.722-4.053 1.86l-0.006 0.007c-0.795 0.916-1.28 2.119-1.28 3.437 0 0.273 0.021 0.541 0.061 0.803l-0.004-0.029c0.758 4.027 2.871 7.464 5.839 9.899l0.029 0.023c-2.997 2.459-5.11 5.898-5.85 9.822l-0.016 0.104c-0.036 0.232-0.057 0.5-0.057 0.773 0 1.316 0.484 2.52 1.284 3.441l-0.006-0.006c0.987 1.145 2.438 1.866 4.059 1.867h13.327c1.62-0.001 3.072-0.722 4.053-1.86l0.006-0.007c0.796-0.916 1.28-2.121 1.28-3.439 0-0.271-0.021-0.538-0.060-0.798l0.004 0.029c-0.765-4.028-2.882-7.466-5.852-9.902l-0.029-0.023zM23.771 27.412c-0.243 0.356-0.646 0.587-1.104 0.588h-13.333c-0 0-0.001 0-0.001 0-0.736 0-1.333-0.597-1.333-1.333 0-0.18 0.036-0.351 0.1-0.508l-0.003 0.009c1.437-3.047 3.518-5.58 6.082-7.505l0.051-0.037 0.933-0.745c0.226-0.181 0.515-0.29 0.83-0.29s0.605 0.109 0.833 0.292l-0.003-0.002 0.92 0.735c2.615 1.969 4.7 4.503 6.095 7.428l0.052 0.121c0.065 0.151 0.102 0.327 0.102 0.512 0 0.274-0.082 0.528-0.224 0.74l0.003-0.005zM20.465 25.333h-8.933c1.225-1.786 2.668-3.31 4.315-4.582l0.046-0.034 0.107-0.088 0.095 0.073c1.693 1.315 3.138 2.843 4.326 4.563l0.044 0.068z"></path>
</svg>
