<!-- Generated by IcoMoon.io -->
<svg version="1.1" xmlns="http://www.w3.org/2000/svg" width="32" height="32" viewBox="0 0 32 32">
<title>music</title>
<path d="M6.667 30.667c3.68-0.005 6.662-2.987 6.667-6.666v-16c0-2.209 1.791-4 4-4v0h8c2.209 0 4 1.791 4 4v0 10.701c-1.095-0.849-2.487-1.363-3.999-1.368h-0.001c-3.682 0-6.667 2.985-6.667 6.667s2.985 6.667 6.667 6.667c3.682 0 6.667-2.985 6.667-6.667v0-16c-0.005-3.68-2.987-6.662-6.666-6.667h-8c-3.68 0.005-6.662 2.987-6.667 6.666v10.702c-1.095-0.849-2.487-1.363-3.999-1.368h-0.001c-3.682 0-6.667 2.985-6.667 6.667s2.985 6.667 6.667 6.667v0z"></path>
</svg>
