<!-- Generated by IcoMoon.io -->
<svg version="1.1" xmlns="http://www.w3.org/2000/svg" width="32" height="32" viewBox="0 0 32 32">
<title>noise</title>
<path d="M27.312 26.667c-0.736-0.001-1.332-0.597-1.332-1.333 0-0.324 0.115-0.621 0.307-0.852l-0.002 0.002c1.884-2.291 3.027-5.254 3.027-8.484s-1.143-6.193-3.046-8.507l0.019 0.023c-0.19-0.229-0.305-0.526-0.305-0.849 0-0.737 0.597-1.334 1.334-1.334 0.413 0 0.782 0.188 1.027 0.482l0.002 0.002c2.261 2.75 3.632 6.306 3.632 10.183s-1.371 7.433-3.654 10.211l0.022-0.028c-0.246 0.297-0.615 0.484-1.028 0.484-0.001 0-0.002 0-0.003 0h0zM5.535 26.361c0.297-0.246 0.485-0.616 0.485-1.029 0-0.323-0.115-0.62-0.307-0.851l0.002 0.002c-1.885-2.291-3.027-5.254-3.027-8.484s1.143-6.193 3.046-8.507l-0.019 0.023c0.19-0.229 0.305-0.526 0.305-0.849 0-0.736-0.597-1.333-1.333-1.333-0.413 0-0.782 0.188-1.026 0.482l-0.002 0.002c-2.262 2.75-3.633 6.306-3.633 10.183s1.371 7.433 3.655 10.211l-0.022-0.028c0.246 0.296 0.615 0.484 1.027 0.484 0.323 0 0.62-0.115 0.851-0.307l-0.002 0.002zM26.667 16c-0.007 5.888-4.778 10.66-10.666 10.667h-0.001c-14.117-0.501-14.113-20.835 0-21.333 5.888 0.007 10.66 4.778 10.667 10.666v0.001zM17.333 21.333c0-0.736-0.597-1.333-1.333-1.333s-1.333 0.597-1.333 1.333v0c0 0.736 0.597 1.333 1.333 1.333s1.333-0.597 1.333-1.333v0zM17.333 10.667c0-0.736-0.597-1.333-1.333-1.333s-1.333 0.597-1.333 1.333v0 5.333c0 0.736 0.597 1.333 1.333 1.333s1.333-0.597 1.333-1.333v0z"></path>
</svg>
