<!-- Generated by IcoMoon.io -->
<svg version="1.1" xmlns="http://www.w3.org/2000/svg" width="32" height="32" viewBox="0 0 32 32">
<title>power</title>
<path d="M15.995 0v0c1.104 0 1.999 0.895 1.999 1.999v6.663c0 1.104-0.895 1.999-1.999 1.999v0c-1.104 0-1.999-0.895-1.999-1.999v-6.663c0-1.104 0.895-1.999 1.999-1.999z"></path>
<path d="M20.659 6.583v0c-0.010 0.671 0.328 1.299 0.894 1.66 5.024 3.070 6.608 9.631 3.539 14.655s-9.631 6.608-14.655 3.539-6.608-9.631-3.539-14.655c0.877-1.436 2.082-2.643 3.515-3.524 0.575-0.361 0.923-0.994 0.918-1.674v0c0.003-1.104-0.889-2.001-1.993-2.004-0.379-0.001-0.751 0.106-1.072 0.308-6.877 4.272-8.989 13.309-4.718 20.186s13.309 8.989 20.186 4.718 8.989-13.309 4.718-20.186c-1.189-1.914-2.803-3.529-4.718-4.718-0.937-0.591-2.175-0.311-2.766 0.626-0.202 0.32-0.309 0.691-0.309 1.069z"></path>
</svg>
