<!-- Generated by IcoMoon.io -->
<svg version="1.1" xmlns="http://www.w3.org/2000/svg" width="32" height="32" viewBox="0 0 32 32">
<title>raindrops</title>
<path d="M17.333 32c-4.416-0.005-7.995-3.584-8-8v-0c0-2.080 1.6-5.393 4.736-9.851 0.739-1.020 1.926-1.676 3.267-1.676s2.528 0.656 3.259 1.664l0.008 0.012c3.137 4.457 4.731 7.771 4.731 9.851-0.005 4.416-3.584 7.995-8 8h-0z"></path>
<path d="M6.667 14.667c-3.68-0.005-6.662-2.987-6.667-6.666v-0c0-1.68 1.123-3.807 3.432-6.503 0.787-0.911 1.944-1.484 3.235-1.484s2.448 0.573 3.23 1.479l0.005 0.005c2.309 2.693 3.432 4.82 3.432 6.503-0.005 3.68-2.987 6.662-6.666 6.667h-0z"></path>
<path d="M26 13.285c-3.312-0.004-5.996-2.688-6-6v-0c0-1.455 0.933-3.341 2.861-5.768 0.744-0.92 1.873-1.504 3.139-1.504s2.395 0.584 3.133 1.497l0.006 0.008c1.928 2.427 2.861 4.313 2.861 5.768-0.004 3.312-2.688 5.996-6 6h-0z"></path>
</svg>
