<!-- Generated by IcoMoon.io -->
<svg version="1.1" xmlns="http://www.w3.org/2000/svg" width="32" height="32" viewBox="0 0 32 32">
<title>voice</title>
<path d="M11.6 24h-7.6c-1.991 0-4-1.512-4-4.888v-6.72c0.060-6.385 4.876-11.626 11.073-12.356l0.059-0.006c0.26-0.020 0.563-0.032 0.869-0.032 6.627 0 12 5.373 12 12 0 0.306-0.011 0.609-0.034 0.909l0.002-0.040c-0.736 6.258-5.982 11.075-12.364 11.132l-0.006 0zM26.667 12.107h-0.016c0 0.316 0 0.632-0.016 0.949-0.515 7.211-7.105 13.315-14.523 13.585v0.020c1.875 3.208 5.299 5.331 9.22 5.339h6.668c2.209 0 4-1.791 4-4v0-6.667c-0.004-3.923-2.126-7.35-5.283-9.199l-0.050-0.027z"></path>
</svg>
