<!-- Generated by IcoMoon.io -->
<svg version="1.1" xmlns="http://www.w3.org/2000/svg" width="32" height="32" viewBox="0 0 32 32">
<title>voice-light</title>
<path d="M32 21.333v6.667c0 2.209-1.791 4-4 4v0h-6.667c-3.923-0.004-7.35-2.126-9.199-5.283l-0.027-0.050c1.063-0.008 2.094-0.128 3.087-0.349l-0.097 0.018c1.475 1.834 3.719 2.997 6.235 2.997 0.001 0 0.002 0 0.002 0h6.667c0.736 0 1.333-0.597 1.333-1.333v0-6.667c-0.001-2.517-1.166-4.762-2.987-6.225l-0.016-0.012c0.204-0.895 0.326-1.925 0.336-2.982l0-0.007c3.208 1.877 5.329 5.304 5.333 9.226v0.001zM23.969 12.868c0.020-0.26 0.032-0.563 0.032-0.869 0-6.627-5.373-12-12-12-0.306 0-0.609 0.011-0.909 0.034l0.040-0.002c-6.256 0.735-11.072 5.977-11.132 12.355l-0 0.006v6.72c0 3.376 2.009 4.888 4 4.888h7.6c6.388-0.057 11.633-4.874 12.364-11.073l0.006-0.059zM18.6 5.401c1.689 1.693 2.733 4.029 2.733 6.609 0 0.236-0.009 0.47-0.026 0.702l0.002-0.031c-0.601 4.884-4.715 8.631-9.707 8.652h-7.602c-1.237 0-1.333-1.7-1.333-2.221v-6.72c0.024-4.992 3.771-9.102 8.606-9.697l0.048-0.005q0.332-0.024 0.664-0.024c0.003 0 0.006 0 0.009 0 2.58 0 4.916 1.045 6.607 2.735l-0-0z"></path>
</svg>
