<!-- Generated by IcoMoon.io -->
<svg version="1.1" xmlns="http://www.w3.org/2000/svg" width="32" height="32" viewBox="0 0 32 32">
<title>volume</title>
<path d="M27.733 5.724c-0.235-0.21-0.546-0.338-0.887-0.338-0.736 0-1.333 0.597-1.333 1.333 0 0.343 0.129 0.655 0.342 0.891l-0.001-0.001c2.144 2.149 3.469 5.115 3.469 8.391s-1.326 6.242-3.47 8.391l0-0c-0.274 0.245-0.446 0.6-0.446 0.995 0 0.736 0.597 1.333 1.333 1.333 0.394 0 0.748-0.171 0.992-0.442l0.001-0.001c2.626-2.632 4.25-6.264 4.25-10.276s-1.624-7.644-4.25-10.276l0 0z"></path>
<path d="M24.124 9.724c-0.243-0.251-0.583-0.407-0.959-0.407-0.736 0-1.333 0.597-1.333 1.333 0 0.376 0.156 0.716 0.407 0.959l0 0c1.121 1.125 1.815 2.677 1.815 4.391s-0.693 3.266-1.815 4.391l0-0c-0.251 0.243-0.407 0.583-0.407 0.959 0 0.736 0.597 1.333 1.333 1.333 0.376 0 0.716-0.156 0.959-0.407l0-0c1.604-1.607 2.595-3.826 2.595-6.276s-0.992-4.669-2.595-6.276l0 0z"></path>
<path d="M18.425 0.276c-4.167 0.802-7.687 3.119-10.036 6.345l-0.032 0.046h-1.691c-3.68 0.005-6.662 2.987-6.667 6.666v5.334c0.005 3.68 2.987 6.662 6.666 6.667h1.692c2.38 3.271 5.9 5.589 9.966 6.374l0.101 0.016c0.073 0.014 0.156 0.022 0.241 0.022 0.736 0 1.333-0.597 1.333-1.333v-28.827c-0-0.736-0.597-1.333-1.333-1.333-0.085 0-0.169 0.008-0.25 0.023l0.008-0.001z"></path>
</svg>
