<!-- Generated by IcoMoon.io -->
<svg version="1.1" xmlns="http://www.w3.org/2000/svg" width="32" height="32" viewBox="0 0 32 32">
<title>wind</title>
<path d="M8.667 17.333h-6.667c-1.105 0-2-0.895-2-2s0.895-2 2-2v0h6.667c1.105 0 2 0.895 2 2s-0.895 2-2 2v0z"></path>
<path d="M24.667 17.333h-9.333c-1.105 0-2-0.895-2-2s0.895-2 2-2v0h9.333c0 0 0 0 0 0 1.841 0 3.333-1.492 3.333-3.333 0-0.015-0-0.030-0-0.045l0 0.002c-0.036-1.288-0.967-2.349-2.191-2.585l-0.017-0.003c-0.138-0.025-0.297-0.040-0.459-0.040-1.473 0-2.667 1.194-2.667 2.667 0 0.001 0 0.003 0 0.004v-0c0 1.105-0.895 2-2 2v0c-3.689-0.424-1.571-5.633 0.347-7.077 1.156-0.988 2.668-1.59 4.321-1.59 3.65 0 6.614 2.933 6.666 6.57l0 0.005c0 0.027 0.001 0.060 0.001 0.092 0 4.050-3.283 7.333-7.333 7.333-0 0-0 0-0.001 0h0z"></path>
<path d="M9.333 10.667h-7.333c-1.105 0-2-0.895-2-2s0.895-2 2-2v0h7.333c0.018 0.001 0.040 0.001 0.062 0.001 0.649 0 1.197-0.434 1.369-1.027l0.002-0.010c0.016-0.076 0.025-0.164 0.025-0.254 0-0.319-0.114-0.612-0.304-0.839l0.002 0.002c-0.277-0.264-0.652-0.426-1.065-0.426-0.47 0-0.891 0.21-1.174 0.542l-0.002 0.002c-0.37 0.464-0.934 0.759-1.568 0.759-1.105 0-2-0.895-2-2 0-0.49 0.176-0.938 0.468-1.286l-0.003 0.003c1.016-1.245 2.551-2.033 4.27-2.033 1.648 0 3.126 0.725 4.134 1.872l0.005 0.006c0.766 0.915 1.232 2.105 1.232 3.404 0 0.34-0.032 0.673-0.093 0.996l0.005-0.033c-0.509 2.482-2.675 4.322-5.271 4.322-0.033 0-0.067-0-0.1-0.001l0.005 0z"></path>
<path d="M20.78 32.011c-1.986-0.006-3.759-0.909-4.937-2.326l-0.008-0.010c-0.281-0.342-0.452-0.784-0.452-1.267 0-1.105 0.896-2.001 2.001-2.001 0.623 0 1.179 0.284 1.546 0.731l0.003 0.003c0.427 0.5 1.058 0.815 1.763 0.815 0.634 0 1.209-0.255 1.627-0.668l-0 0c0.29-0.346 0.467-0.797 0.467-1.288 0-0.137-0.014-0.27-0.040-0.399l0.002 0.013c-0.243-0.936-1.080-1.615-2.076-1.615-0.032 0-0.064 0.001-0.095 0.002l0.005-0h-18.584c-1.105 0-2-0.895-2-2s0.895-2 2-2v0h18.584c0.035-0.001 0.077-0.001 0.119-0.001 2.947 0 5.405 2.088 5.977 4.866l0.007 0.039c0.064 0.33 0.101 0.71 0.101 1.099 0 3.318-2.69 6.008-6.008 6.008v0z"></path>
</svg>
